<?xml version="1.0" standalone="no"?>
<!DOCTYPE svg PUBLIC "-//W3C//DTD SVG 20010904//EN"
 "http://www.w3.org/TR/2001/REC-SVG-20010904/DTD/svg10.dtd">
<svg version="1.0" xmlns="http://www.w3.org/2000/svg"
 width="512.000000pt" height="512.000000pt" viewBox="0 0 512.000000 512.000000"
 preserveAspectRatio="xMidYMid meet">

<g transform="translate(0.000000,512.000000) scale(0.100000,-0.100000)"
fill="#000000" stroke="none">
<path d="M2380 4404 c-104 -31 -236 -92 -300 -139 l-48 -35 -16 25 c-19 29
-47 32 -68 8 -22 -25 -73 -130 -88 -179 -12 -40 -13 -40 -102 -68 -102 -31
-151 -67 -141 -105 3 -13 16 -27 29 -33 23 -11 22 -12 -38 -77 -111 -121 -162
-214 -200 -369 -19 -74 -22 -115 -23 -274 l0 -188 28 -25 c22 -21 27 -35 27
-70 0 -36 5 -48 24 -60 22 -14 28 -15 60 -1 28 12 38 12 41 3 30 -87 89 -237
101 -254 16 -26 46 -30 62 -10 9 10 42 296 42 357 0 6 24 10 53 10 164 0 361
95 513 247 l73 73 -5 -113 c-6 -123 1 -150 47 -176 24 -13 30 -12 65 6 49 25
147 146 238 292 37 61 72 109 76 106 5 -3 50 -78 101 -168 160 -281 191 -317
242 -284 15 9 28 32 34 53 l8 37 47 -99 c25 -54 65 -141 88 -191 64 -139 95
-135 177 18 l49 93 63 -3 c48 -2 67 2 82 15 26 23 24 39 -11 108 -28 56 -29
61 -13 69 31 16 43 39 43 83 0 54 -41 213 -73 287 -25 55 -25 57 -6 57 60 0
44 113 -40 285 -57 116 -130 201 -208 243 l-52 28 30 43 c29 44 35 67 21 87
-18 27 -56 34 -186 34 l-135 0 11 31 c9 26 8 34 -9 51 -33 33 -352 98 -479 98
l-63 0 6 30 c8 40 -19 70 -61 69 -17 0 -69 -11 -116 -25z"/>
</g>
</svg>
