<?xml version="1.0" standalone="no"?>
<!DOCTYPE svg PUBLIC "-//W3C//DTD SVG 20010904//EN"
 "http://www.w3.org/TR/2001/REC-SVG-20010904/DTD/svg10.dtd">
<svg version="1.0" xmlns="http://www.w3.org/2000/svg"
 width="512.000000pt" height="512.000000pt" viewBox="0 0 512.000000 512.000000"
 preserveAspectRatio="xMidYMid meet">

<g transform="translate(0.000000,512.000000) scale(0.100000,-0.100000)"
fill="#000000" stroke="none">
<path d="M2404 5109 c-234 -13 -498 -66 -709 -144 -245 -89 -536 -254 -745
-422 -383 -306 -696 -773 -839 -1251 -72 -241 -103 -464 -103 -732 0 -268 30
-476 102 -725 126 -432 401 -869 736 -1168 115 -103 257 -212 277 -212 6 0
100 331 222 780 l211 780 -61 65 c-173 182 -249 386 -249 670 0 155 16 262 59
399 l24 76 -119 450 c-65 247 -117 452 -114 454 2 3 189 -48 416 -112 l411
-116 59 30 c87 44 249 96 358 115 132 23 399 15 520 -15 106 -27 201 -61 279
-100 l59 -30 404 114 c221 63 408 115 414 115 6 0 -42 -199 -108 -447 -110
-412 -118 -451 -108 -488 48 -180 61 -243 70 -340 28 -320 -70 -614 -264 -793
l-45 -41 212 -785 c117 -432 215 -788 219 -791 12 -12 216 153 347 280 233
227 374 421 516 710 208 422 295 882 255 1345 -11 120 -34 274 -50 325 -5 17
-23 82 -41 145 -110 406 -344 806 -654 1115 -521 521 -1216 785 -1961 744z"/>
<path d="M3183 3119 c-99 -29 -135 -161 -64 -237 67 -73 187 -57 232 30 25 48
24 91 -2 138 -34 59 -102 88 -166 69z"/>
<path d="M1834 3111 c-32 -14 -72 -68 -80 -106 -8 -45 10 -95 46 -130 24 -23
41 -30 88 -33 52 -4 61 -1 90 23 79 67 82 155 8 224 -28 27 -113 39 -152 22z"/>
<path d="M2502 2869 c-80 -10 -123 -35 -140 -81 -12 -32 -12 -40 3 -72 10 -20
35 -49 56 -64 l39 -27 0 -196 0 -196 68 -6 c37 -4 82 -7 100 -7 l32 0 0 196 0
196 55 52 c47 44 55 57 55 88 0 92 -107 139 -268 117z"/>
</g>
</svg>
