<?xml version="1.0" standalone="no"?>
<!DOCTYPE svg PUBLIC "-//W3C//DTD SVG 20010904//EN"
 "http://www.w3.org/TR/2001/REC-SVG-20010904/DTD/svg10.dtd">
<svg version="1.0" xmlns="http://www.w3.org/2000/svg"
 width="512.000000pt" height="512.000000pt" viewBox="0 0 512.000000 512.000000"
 preserveAspectRatio="xMidYMid meet">

<g transform="translate(0.000000,512.000000) scale(0.100000,-0.100000)"
fill="#000000" stroke="none">
<path d="M2380 4490 c-450 -77 -817 -380 -959 -791 -66 -191 -66 -186 -66
-914 0 -601 2 -668 18 -745 37 -172 95 -308 192 -450 35 -51 50 -82 42 -85 -6
-2 -29 -6 -50 -10 l-37 -6 2 -635 3 -636 85 -34 c107 -44 277 -96 398 -122
l92 -20 0 22 c0 11 -38 318 -84 681 -47 363 -84 661 -83 662 1 1 58 -78 127
-175 158 -222 166 -231 215 -253 89 -41 180 -14 245 74 l35 47 3 -550 2 -549
103 5 c156 8 411 42 517 69 214 54 434 144 633 257 l88 50 -6 52 c-3 28 -25
229 -49 447 -47 425 -52 450 -116 522 -34 40 -131 90 -193 101 l-38 7 29 37
c107 137 182 307 222 501 19 93 20 135 20 734 0 535 -2 648 -16 718 -72 378
-300 691 -631 862 -192 99 -307 128 -523 133 -91 1 -190 -1 -220 -6z m245
-1231 c74 -106 181 -158 345 -166 58 -2 130 -11 160 -20 64 -17 141 -55 159
-77 12 -15 -18 -16 -328 -16 l-341 0 0 -44 c0 -43 -1 -45 -32 -48 -33 -3 -33
-4 -36 -60 l-3 -58 34 0 34 0 7 -72 c4 -40 14 -94 22 -121 21 -64 99 -148 166
-178 50 -23 64 -24 243 -24 173 0 194 2 236 21 66 31 128 91 155 149 l24 50 0
-119 0 -118 33 6 c38 7 73 31 101 70 19 25 21 44 24 208 l3 181 35 -34 c41
-39 74 -122 74 -184 0 -62 -33 -142 -77 -187 -41 -42 -123 -78 -181 -79 -37 0
-37 -1 -85 -97 -85 -173 -238 -326 -414 -413 l-83 -41 0 -104 0 -103 35 -7
c19 -3 35 -8 35 -10 0 -3 -93 -106 -206 -230 l-207 -226 -28 29 c-15 15 -107
116 -204 223 -97 107 -186 198 -198 202 -17 5 -14 6 13 7 81 3 80 2 80 116 l0
104 -75 36 c-176 84 -338 244 -423 417 l-47 97 -45 0 c-56 1 -135 38 -177 82
-98 104 -96 278 5 372 l30 29 3 -174 c4 -152 6 -177 24 -208 22 -37 65 -66
105 -72 l25 -3 -1 95 c-1 52 -9 124 -17 160 -12 45 -17 111 -17 213 l0 147 99
0 c79 0 103 3 122 18 85 65 165 90 303 98 61 3 134 13 162 20 59 17 133 66
175 117 38 46 79 134 80 172 0 23 5 15 22 -36 13 -37 36 -86 52 -110z m745
-486 c0 -153 -28 -219 -110 -260 -40 -21 -58 -23 -208 -23 -140 0 -168 3 -200
19 -87 45 -112 100 -112 251 l0 110 315 0 315 0 0 -97z m-1307 -1220 c-7 -2
-19 -2 -25 0 -7 3 -2 5 12 5 14 0 19 -2 13 -5z m-86 -9 c-3 -3 -12 -4 -19 -1
-8 3 -5 6 6 6 11 1 17 -2 13 -5z"/>
<path d="M2093 2815 c-39 -17 -43 -29 -43 -134 0 -79 2 -90 23 -109 31 -29 77
-29 105 1 19 20 22 35 22 111 0 48 -4 96 -10 106 -15 28 -61 40 -97 25z"/>
<path d="M2725 2242 c-15 -69 -80 -132 -137 -132 -27 0 -28 -1 -28 -61 l0 -61
43 7 c62 11 130 49 170 96 36 42 67 113 67 156 0 21 -4 23 -54 23 -51 0 -55
-2 -61 -28z"/>
<path d="M2965 2820 c-34 -13 -47 -37 -52 -99 -10 -112 16 -171 78 -171 64 0
89 38 89 137 0 69 -21 120 -55 133 -30 12 -33 12 -60 0z"/>
</g>
</svg>
